<?xml version="1.0" ?><svg data-name="Layer 1" id="Layer_1" viewBox="0 0 48 48" xmlns="http://www.w3.org/2000/svg"><defs><style>.cls-1,.cls-2{fill:none;stroke:#000;stroke-miterlimit:10;stroke-width:2px;}.cls-2{stroke-linecap:round;}</style></defs><title/><rect class="cls-1" height="27.5" rx="9" ry="9" width="20.5" x="14.5" y="15.5"/><path class="cls-1" d="M20,16.21V8.81A2.81,2.81,0,0,1,22.81,6h4.38A2.81,2.81,0,0,1,30,8.81v7.64"/><line class="cls-1" x1="25" x2="25" y1="25" y2="33"/><rect class="cls-1" height="4" width="4" x="2" y="28"/><rect class="cls-1" height="4" width="4" x="2" y="35"/><rect class="cls-1" height="4" width="4" x="2" y="42"/><rect class="cls-1" height="4" width="4" x="42" y="2"/><rect class="cls-1" height="4" width="4" x="42" y="9"/><rect class="cls-1" height="4" width="4" x="42" y="16"/><line class="cls-2" x1="4" x2="4" y1="25" y2="2"/><line class="cls-2" x1="44" x2="44" y1="23" y2="46"/><line class="cls-2" x1="26" x2="44" y1="46" y2="46"/><line class="cls-2" x1="24" x2="4" y1="2" y2="2"/></svg>